<svg width="95" height="100" viewBox="0 0 95 100" fill="none" xmlns="http://www.w3.org/2000/svg">
<path d="M17.01 43.3867C9.62539 44.37 6.021 50.2208 6.021 56.3175C6.021 62.4633 9.7133 68.855 17.01 70.6741V74.0669C17.01 76.525 15.7353 77.5081 15.032 77.5081V78H26.9001V77.5081C26.1968 77.5081 24.9221 76.525 24.9221 74.0669V70.7231C28.3067 69.6908 31.2518 67.2817 32.4825 63.4467L28.5265 54.0558L28.1309 54.2525C28.8781 57.5958 27.3397 60.3983 24.9221 61.8733V50.6142C28.3946 51.4008 31.9551 52.5317 35.9111 52.5317V74.0669C35.9111 76.525 34.6364 77.5081 33.9331 77.5081V78H45.8012V77.5081C45.0979 77.5081 43.8232 76.525 43.8232 74.0669V50.3683C45.4935 49.2375 46.7243 47.615 47.1639 45.3533L45.054 40.4367L44.6584 40.6333C44.9661 42.2067 44.5705 43.4358 43.8232 44.3208V22.9333C43.8232 20.475 45.0979 19.4917 45.8012 19.4917V19H33.9331V19.4917C34.6364 19.4917 35.9111 20.475 35.9111 22.9333V46.5825C32.1309 46.2383 28.5265 44.9108 24.9221 44.0258V22.9333C24.9221 20.475 26.1968 19.4917 26.9001 19.4917V19H15.032V19.4917C15.7353 19.4917 17.01 20.475 17.01 22.9333V43.3867ZM17.01 62.2175C13.977 60.9392 12.4386 58.2842 12.4386 55.7275C12.4386 53.22 13.977 50.8108 17.01 50.0733V62.2175Z" fill="white"/>
<path d="M63.1786 70.7397V56.3014C63.1786 54.9315 63.9772 54.3836 64.4179 54.3836V54.1096H57.2573V54.3836C57.6979 54.3836 58.4966 54.9315 58.4966 56.3014V70.274C58.4966 71.5616 57.2022 72.4658 56.1556 72.4658C55.1366 72.4658 53.8422 71.5616 53.8422 70.274V56.3014C53.8422 54.9315 54.6409 54.3836 55.0815 54.3836V54.1096H47.9209V54.3836C48.3616 54.3836 49.1602 54.9315 49.1602 56.3014V70.7397C49.1602 74.4931 52.5753 76.3014 56.1556 76.3014C59.2953 76.3014 63.1786 74.2466 63.1786 70.7397ZM66.6132 54.3836C67.0538 54.3836 67.8525 54.9315 67.8525 56.3014V73.8356C67.8525 75.2055 67.0538 75.7534 66.6132 75.7534V76.0274H72.5342C77.106 76.0274 82.146 75.1781 82.146 69.3973C82.146 67.2877 80.824 65.4247 78.7309 64.9589C80.5761 64.0274 81.5951 62.2192 81.5951 60.1644C81.5951 54.7945 76.7204 54.1096 72.5342 54.1096H66.6132V54.3836ZM72.5342 66.8767C74.1866 66.8767 77.0509 66.5753 77.0509 69.7534C77.0509 72.9315 74.1866 72.7123 72.5342 72.7123V66.8767ZM72.5342 63.1781V57.4247C74.5722 57.4247 76.9132 57.2329 76.9132 60.1644C76.9132 62.8493 74.6273 63.1781 72.5342 63.1781Z" fill="white"/>
<path d="M47.3701 53.4247H54.5858V53.1507C54.2003 53.1507 53.5944 52.8219 53.8422 51.2329C54.0625 49.863 54.3104 48.5205 54.5032 47.1507L57.7806 46.5753C58.0284 48.1096 58.2763 49.6712 58.5242 51.2329C58.772 52.8219 58.1661 53.1507 57.7806 53.1507V53.4247H64.9963V53.1507C64.5556 53.1507 63.7294 52.2192 63.5091 51.2329C62.5176 47.0411 60.397 35.726 59.433 31.5069H51.1157V31.7808C51.5288 31.7808 52.355 32.274 52.3275 33.6986C52.3275 34.9315 49.4357 48.8493 48.8573 51.2329C48.6095 52.2466 47.8108 53.1507 47.3701 53.1507V53.4247ZM56.2107 36.1918C56.5412 38.4658 56.8717 40.7123 57.2022 42.9589L55.1091 43.3425C55.4947 40.9589 55.8527 38.5753 56.2107 36.1918ZM67.8795 51.2329C67.8795 52.6027 67.0808 53.1507 66.6401 53.1507V53.4247H73.8011V53.1507C73.3604 53.1507 72.5618 52.6027 72.5618 51.2329V33.6986C72.5618 32.3288 73.3604 31.7808 73.8011 31.7808V31.5069H66.6401V31.7808C67.0808 31.7808 67.8795 32.3288 67.8795 33.6986V51.2329ZM83.1602 53.4247V53.1507C82.7195 53.1507 81.9208 52.6027 81.9208 51.2329V45.0411C82.334 45.0411 82.7746 45.0411 83.1877 45.0137C84.1241 45.863 85.5562 50.5753 86.1897 52.3288C86.6303 53.589 88.3103 53.4247 92.7444 53.4247V53.1507C90.7064 53.1507 89.6047 44.7397 87.5116 44.137C89.77 43.2055 91.3949 41.4521 91.3949 38.2466C91.3949 32.2192 86.1897 31.5069 81.9208 31.5069H75.9995V31.7808C76.4402 31.7808 77.2389 32.3288 77.2389 33.6986V51.2329C77.2389 52.6027 76.4402 53.1507 75.9995 53.1507V53.4247H83.1602ZM81.9208 34.8219C83.5733 34.8219 86.4375 34.6027 86.4375 38.3014C86.4375 40.9589 83.5733 41.4247 81.9208 41.4247V34.8219Z" fill="white"/>
<mask id="mask0_233_478" style="mask-type:luminance" maskUnits="userSpaceOnUse" x="9" y="9" width="24" height="76">
<path d="M32.0324 9H9.729V84.9315H32.0324V9Z" fill="white"/>
</mask>
<g mask="url(#mask0_233_478)">
<path d="M17.2598 28.4097L17.3992 65.6932L24.6774 65.5331L24.538 27.0513L17.2598 28.4097Z" fill="white"/>
<path d="M17.1657 31.3879L18.9326 27.9116L23.0169 28.2498L17.1431 41.9531L17.1657 31.3879Z" fill="#D80D1A"/>
<path d="M17.2597 48.8815L24.6303 31.7554L24.5833 43.2281L17.2354 60.6746L17.2597 48.8815Z" fill="#1D86FA"/>
<path d="M18.4292 65.5333L24.6079 50.6377L24.5138 61.6299L22.1964 67.2892L18.4292 65.5333Z" fill="#D80D1A"/>
<path d="M16.772 28.1587L16.8428 62.2745L17.1828 61.4862L17.1129 27.3704L16.772 28.1587Z" fill="#A1D2D6"/>
<path d="M24.4019 27.4405L24.4404 61.7847L24.8127 61.5484L24.7636 27.3706L24.4019 27.4405Z" fill="#A1D2D6"/>
<path d="M16.8198 71.4077L24.8528 71.5884C24.8528 71.5884 24.8137 72.1554 24.6916 72.7041C24.5729 73.2337 24.4122 73.5509 24.4122 73.5509L17.2862 73.5614C17.2862 73.5614 17.0815 73.1664 16.998 72.7812C16.8139 71.9319 16.8198 71.4077 16.8198 71.4077Z" fill="#858585"/>
<path d="M16.772 70.7654L24.4021 70.2492C24.4021 70.2492 24.3772 69.196 24.2415 68.4042C24.1281 67.7358 23.9676 67.3653 23.9676 67.3653L17.1124 67.714C17.1124 67.714 16.974 68.2516 16.8924 68.8691C16.7941 69.6174 16.772 70.7654 16.772 70.7654Z" fill="#E1E0E0"/>
<path d="M16.772 23.8298C16.772 23.8298 18.0049 22.6585 20.754 22.4911C23.503 22.3237 24.7532 23.2929 24.7532 23.2929C24.7532 23.2929 24.7647 24.1017 24.7101 24.8757C24.6498 25.7402 24.5549 26.3119 24.5549 26.3119C24.5549 26.3119 22.191 25.545 20.754 25.6007C19.317 25.6565 16.9717 26.7581 16.9717 26.7581C16.9717 26.7581 16.8726 25.9285 16.8381 25.4334C16.805 24.9175 16.772 23.8298 16.772 23.8298Z" fill="#858585"/>
</g>
</svg>
