<svg width="438" height="466" viewBox="0 0 438 466" fill="none" xmlns="http://www.w3.org/2000/svg">
<path d="M60.6285 179.591C19.8861 184.645 0 214.714 0 246.046C0 277.632 20.3711 310.48 60.6285 319.829V337.266C60.6285 349.899 53.5955 354.952 49.7152 354.952V357.479H115.194V354.952C111.314 354.952 104.281 349.899 104.281 337.266V320.081C122.954 314.776 139.203 302.395 145.993 282.686L124.167 234.423L121.984 235.434C126.107 252.616 117.619 267.019 104.281 274.599V216.735C123.439 220.778 143.083 226.59 164.909 226.59V337.266C164.909 349.899 157.876 354.952 153.996 354.952V357.479H219.475V354.952C215.594 354.952 208.562 349.899 208.562 337.266V215.472C217.777 209.66 224.567 201.322 226.993 189.698L215.352 164.43L213.169 165.441C214.867 173.527 212.684 179.843 208.562 184.392V74.4748C208.562 61.8408 215.594 56.7872 219.475 56.7872V54.2603H153.996V56.7872C157.876 56.7872 164.909 61.8408 164.909 74.4748V196.015C144.053 194.246 124.167 187.424 104.281 182.876V74.4748C104.281 61.8408 111.314 56.7872 115.194 56.7872V54.2603H49.7152V56.7872C53.5955 56.7872 60.6285 61.8408 60.6285 74.4748V179.591ZM60.6285 276.368C43.895 269.799 35.407 256.154 35.407 243.014C35.407 230.127 43.895 217.746 60.6285 213.956V276.368Z" fill="white"/>
<path d="M293.364 329.647V262.364C293.364 255.981 297.073 253.427 299.119 253.427V252.151H265.869V253.427C267.915 253.427 271.624 255.981 271.624 262.364V327.477C271.624 333.477 265.613 337.69 260.754 337.69C256.022 337.69 250.011 333.477 250.011 327.477V262.364C250.011 255.981 253.72 253.427 255.766 253.427V252.151H222.517V253.427C224.563 253.427 228.271 255.981 228.271 262.364V329.647C228.271 347.138 244.129 355.564 260.754 355.564C275.332 355.564 293.364 345.989 293.364 329.647ZM309.312 253.427C311.358 253.427 315.067 255.981 315.067 262.364V344.074C315.067 350.458 311.358 353.011 309.312 353.011V354.288H336.806C358.034 354.288 381.437 350.33 381.437 323.391C381.437 313.561 375.299 304.879 365.58 302.708C374.148 298.368 378.879 289.941 378.879 280.366C378.879 255.342 356.244 252.151 336.806 252.151H309.312V253.427ZM336.806 311.645C344.479 311.645 357.779 310.241 357.779 325.051C357.779 339.861 344.479 338.839 336.806 338.839V311.645ZM336.806 294.41V267.599C346.269 267.599 357.139 266.705 357.139 280.366C357.139 292.878 346.525 294.41 336.806 294.41Z" fill="white"/>
<path d="M219.959 248.959H253.464V247.682C251.674 247.682 248.861 246.15 250.012 238.745C251.035 232.362 252.186 226.106 253.081 219.722L268.299 217.041C269.45 224.191 270.601 231.468 271.752 238.745C272.903 246.15 270.089 247.682 268.299 247.682V248.959H301.804V247.682C299.758 247.682 295.922 243.341 294.899 238.745C290.295 219.211 280.448 166.483 275.972 146.822H237.351V148.099C239.269 148.099 243.106 150.397 242.978 157.036C242.978 162.781 229.55 227.638 226.865 238.745C225.714 243.469 222.005 247.682 219.959 247.682V248.959ZM261.009 168.654C262.544 179.25 264.079 189.719 265.613 200.188L255.894 201.976C257.685 190.868 259.347 179.761 261.009 168.654ZM315.192 238.745C315.192 245.129 311.483 247.682 309.437 247.682V248.959H342.688V247.682C340.642 247.682 336.934 245.129 336.934 238.745V157.036C336.934 150.652 340.642 148.099 342.688 148.099V146.822H309.437V148.099C311.483 148.099 315.192 150.652 315.192 157.036V238.745ZM386.146 248.959V247.682C384.1 247.682 380.392 245.129 380.392 238.745V209.891C382.31 209.891 384.356 209.891 386.274 209.764C390.622 213.722 397.272 235.681 400.214 243.852C402.26 249.725 410.061 248.959 430.65 248.959V247.682C421.186 247.682 416.071 208.487 406.352 205.678C416.838 201.338 424.383 193.167 424.383 178.229C424.383 150.141 400.214 146.822 380.392 146.822H352.897V148.099C354.943 148.099 358.652 150.652 358.652 157.036V238.745C358.652 245.129 354.943 247.682 352.897 247.682V248.959H386.146ZM380.392 162.27C388.065 162.27 401.365 161.249 401.365 178.484C401.365 190.868 388.065 193.039 380.392 193.039V162.27Z" fill="white"/>
<mask id="mask0_233_176" style="mask-type:luminance" maskUnits="userSpaceOnUse" x="22" y="0" width="122" height="396">
<path d="M143.868 0H22.3794V395.781H143.868V0Z" fill="white"/>
</mask>
<g mask="url(#mask0_233_176)">
<path d="M63.4004 101.171L64.1597 295.506L103.805 294.671L103.046 94.0908L63.4004 101.171Z" fill="white"/>
<path d="M62.8881 116.693L72.5122 98.574L94.7601 100.337L62.7646 171.763L62.8881 116.693Z" fill="#D80D1A"/>
<path d="M63.4007 207.878L103.549 118.611L103.293 178.411L63.2681 269.347L63.4007 207.878Z" fill="#1D86FA"/>
<path d="M69.7695 294.671L103.426 217.03L102.913 274.326L90.2897 303.824L69.7695 294.671Z" fill="#D80D1A"/>
<path d="M60.7441 99.8619L61.1297 277.685L62.9821 273.576L62.6013 95.7534L60.7441 99.8619Z" fill="#A1D2D6"/>
<path d="M102.306 96.1176L102.516 275.131L104.544 273.899L104.277 95.7534L102.306 96.1176Z" fill="#A1D2D6"/>
<path d="M61.006 325.29L104.762 326.232C104.762 326.232 104.549 329.187 103.885 332.047C103.238 334.808 102.362 336.462 102.362 336.462L63.5461 336.516C63.5461 336.516 62.4312 334.457 61.9766 332.449C60.9737 328.022 61.006 325.29 61.006 325.29Z" fill="#858585"/>
<path d="M60.7441 321.942L102.306 319.252C102.306 319.252 102.171 313.762 101.432 309.634C100.814 306.151 99.9394 304.219 99.9394 304.219L62.5984 306.037C62.5984 306.037 61.8446 308.839 61.3999 312.058C60.8647 315.958 60.7441 321.942 60.7441 321.942Z" fill="#E1E0E0"/>
<path d="M60.7441 77.2979C60.7441 77.2979 67.4602 71.1927 82.4347 70.3204C97.4089 69.448 104.219 74.4997 104.219 74.4997C104.219 74.4997 104.282 78.7154 103.984 82.7495C103.655 87.2556 103.139 90.2358 103.139 90.2358C103.139 90.2358 90.2621 86.2381 82.4347 86.5289C74.607 86.8196 61.8321 92.5616 61.8321 92.5616C61.8321 92.5616 61.2921 88.2371 61.1041 85.6565C60.9241 82.9675 60.7441 77.2979 60.7441 77.2979Z" fill="#858585"/>
</g>
<path d="M60.688 382.36C61.664 382.568 62.448 383.056 63.04 383.824C63.632 384.576 63.928 385.44 63.928 386.416C63.928 387.824 63.432 388.944 62.44 389.776C61.464 390.592 60.096 391 58.336 391H50.488V374.152H58.072C59.784 374.152 61.12 374.544 62.08 375.328C63.056 376.112 63.544 377.176 63.544 378.52C63.544 379.512 63.28 380.336 62.752 380.992C62.24 381.648 61.552 382.104 60.688 382.36ZM54.592 380.968H57.28C57.952 380.968 58.464 380.824 58.816 380.536C59.184 380.232 59.368 379.792 59.368 379.216C59.368 378.64 59.184 378.2 58.816 377.896C58.464 377.592 57.952 377.44 57.28 377.44H54.592V380.968ZM57.616 387.688C58.304 387.688 58.832 387.536 59.2 387.232C59.584 386.912 59.776 386.456 59.776 385.864C59.776 385.272 59.576 384.808 59.176 384.472C58.792 384.136 58.256 383.968 57.568 383.968H54.592V387.688H57.616ZM97.1401 388.024H90.8521L89.8441 391H85.5481L91.6441 374.152H96.3961L102.492 391H98.1481L97.1401 388.024ZM96.0841 384.856L93.9961 378.688L91.9321 384.856H96.0841ZM133.283 391L129.779 384.64H128.795V391H124.691V374.152H131.579C132.907 374.152 134.035 374.384 134.963 374.848C135.907 375.312 136.611 375.952 137.075 376.768C137.539 377.568 137.771 378.464 137.771 379.456C137.771 380.576 137.451 381.576 136.811 382.456C136.187 383.336 135.259 383.96 134.027 384.328L137.915 391H133.283ZM128.795 381.736H131.339C132.091 381.736 132.651 381.552 133.019 381.184C133.403 380.816 133.595 380.296 133.595 379.624C133.595 378.984 133.403 378.48 133.019 378.112C132.651 377.744 132.091 377.56 131.339 377.56H128.795V381.736ZM175.977 382.36C176.953 382.568 177.737 383.056 178.329 383.824C178.921 384.576 179.217 385.44 179.217 386.416C179.217 387.824 178.721 388.944 177.729 389.776C176.753 390.592 175.385 391 173.625 391H165.777V374.152H173.361C175.073 374.152 176.409 374.544 177.369 375.328C178.345 376.112 178.833 377.176 178.833 378.52C178.833 379.512 178.569 380.336 178.041 380.992C177.529 381.648 176.841 382.104 175.977 382.36ZM169.881 380.968H172.569C173.241 380.968 173.753 380.824 174.105 380.536C174.473 380.232 174.657 379.792 174.657 379.216C174.657 378.64 174.473 378.2 174.105 377.896C173.753 377.592 173.241 377.44 172.569 377.44H169.881V380.968ZM172.905 387.688C173.593 387.688 174.121 387.536 174.489 387.232C174.873 386.912 175.065 386.456 175.065 385.864C175.065 385.272 174.865 384.808 174.465 384.472C174.081 384.136 173.545 383.968 172.857 383.968H169.881V387.688H172.905ZM206.045 377.44V380.848H211.541V384.016H206.045V387.712H212.261V391H201.941V374.152H212.261V377.44H206.045ZM243.861 391L240.357 384.64H239.373V391H235.269V374.152H242.157C243.485 374.152 244.613 374.384 245.541 374.848C246.485 375.312 247.189 375.952 247.653 376.768C248.117 377.568 248.349 378.464 248.349 379.456C248.349 380.576 248.029 381.576 247.389 382.456C246.765 383.336 245.837 383.96 244.605 384.328L248.493 391H243.861ZM239.373 381.736H241.917C242.669 381.736 243.229 381.552 243.597 381.184C243.981 380.816 244.173 380.296 244.173 379.624C244.173 378.984 243.981 378.48 243.597 378.112C243.229 377.744 242.669 377.56 241.917 377.56H239.373V381.736ZM277.365 391.168C276.133 391.168 275.029 390.968 274.053 390.568C273.077 390.168 272.293 389.576 271.701 388.792C271.125 388.008 270.821 387.064 270.789 385.96H275.157C275.221 386.584 275.437 387.064 275.805 387.4C276.173 387.72 276.653 387.88 277.245 387.88C277.853 387.88 278.333 387.744 278.685 387.472C279.037 387.184 279.213 386.792 279.213 386.296C279.213 385.88 279.069 385.536 278.781 385.264C278.509 384.992 278.165 384.768 277.749 384.592C277.349 384.416 276.773 384.216 276.021 383.992C274.933 383.656 274.045 383.32 273.357 382.984C272.669 382.648 272.077 382.152 271.581 381.496C271.085 380.84 270.837 379.984 270.837 378.928C270.837 377.36 271.405 376.136 272.541 375.256C273.677 374.36 275.157 373.912 276.981 373.912C278.837 373.912 280.333 374.36 281.469 375.256C282.605 376.136 283.213 377.368 283.293 378.952H278.853C278.821 378.408 278.621 377.984 278.253 377.68C277.885 377.36 277.413 377.2 276.837 377.2C276.341 377.2 275.941 377.336 275.637 377.608C275.333 377.864 275.181 378.24 275.181 378.736C275.181 379.28 275.437 379.704 275.949 380.008C276.461 380.312 277.261 380.64 278.349 380.992C279.437 381.36 280.317 381.712 280.989 382.048C281.677 382.384 282.269 382.872 282.765 383.512C283.261 384.152 283.509 384.976 283.509 385.984C283.509 386.944 283.261 387.816 282.765 388.6C282.285 389.384 281.581 390.008 280.653 390.472C279.725 390.936 278.629 391.168 277.365 391.168ZM320.971 374.152V391H316.867V384.064H310.483V391H306.379V374.152H310.483V380.752H316.867V374.152H320.971ZM352.245 391.168C350.661 391.168 349.205 390.8 347.877 390.064C346.565 389.328 345.517 388.304 344.733 386.992C343.965 385.664 343.581 384.176 343.581 382.528C343.581 380.88 343.965 379.4 344.733 378.088C345.517 376.776 346.565 375.752 347.877 375.016C349.205 374.28 350.661 373.912 352.245 373.912C353.829 373.912 355.277 374.28 356.589 375.016C357.917 375.752 358.957 376.776 359.709 378.088C360.477 379.4 360.861 380.88 360.861 382.528C360.861 384.176 360.477 385.664 359.709 386.992C358.941 388.304 357.901 389.328 356.589 390.064C355.277 390.8 353.829 391.168 352.245 391.168ZM352.245 387.424C353.589 387.424 354.661 386.976 355.461 386.08C356.277 385.184 356.685 384 356.685 382.528C356.685 381.04 356.277 379.856 355.461 378.976C354.661 378.08 353.589 377.632 352.245 377.632C350.885 377.632 349.797 378.072 348.981 378.952C348.181 379.832 347.781 381.024 347.781 382.528C347.781 384.016 348.181 385.208 348.981 386.104C349.797 386.984 350.885 387.424 352.245 387.424ZM396.328 379.576C396.328 380.552 396.104 381.448 395.656 382.264C395.208 383.064 394.52 383.712 393.592 384.208C392.664 384.704 391.512 384.952 390.136 384.952H387.592V391H383.488V374.152H390.136C391.48 374.152 392.616 374.384 393.544 374.848C394.472 375.312 395.168 375.952 395.632 376.768C396.096 377.584 396.328 378.52 396.328 379.576ZM389.824 381.688C390.608 381.688 391.192 381.504 391.576 381.136C391.96 380.768 392.152 380.248 392.152 379.576C392.152 378.904 391.96 378.384 391.576 378.016C391.192 377.648 390.608 377.464 389.824 377.464H387.592V381.688H389.824Z" fill="white"/>
</svg>
